<svg xmlns="http://www.w3.org/2000/svg" width="50" height="50" fill="currentColor" class="book-icon" viewBox="0 0 16 16">
    <path d="M1 2.828c.885-.37 2.154-.769 3.388-.893 1.33-.134 2.458.063 3.112.752v9.746c-.935-.53-2.12-.603-3.213-.493-1.18.12-2.37.461-3.287.811V2.828zm7.5-.141c.654-.689 1.782-.886 3.112-.752 1.234.124 2.503.523 3.388.893v9.923c-.918-.35-2.107-.692-3.287-.81-1.094-.111-2.278-.039-3.213.492V2.687zM8 1.783C7.015.936 5.587.81 4.287.94c-1.514.153-3.042.672-3.994 1.105A.5.5 0 0 0 0 2.5v11a.5.5 0 0 0 .5.5h15a.5.5 0 0 0 .5-.5V2.5a.5.5 0 0 0-.5-.5c-1.33-.433-2.477-.952-3.994-1.105C9.413.81 7.985.936 7 1.783z"/>
</svg>